<svg width="38" height="28" viewBox="0 0 38 28" fill="none" xmlns="http://www.w3.org/2000/svg">
<path d="M0 4.66667C0 3.42899 0.500445 2.242 1.39124 1.36683C2.28204 0.491665 3.49022 0 4.75 0H33.25C34.5098 0 35.718 0.491665 36.6088 1.36683C37.4996 2.242 38 3.42899 38 4.66667V23.3333C38 24.571 37.4996 25.758 36.6088 26.6332C35.718 27.5083 34.5098 28 33.25 28H4.75C3.49022 28 2.28204 27.5083 1.39124 26.6332C0.500445 25.758 0 24.571 0 23.3333V4.66667ZM4.75 2.33333C4.12011 2.33333 3.51602 2.57917 3.07062 3.01675C2.62522 3.45434 2.375 4.04783 2.375 4.66667V5.173L19 14.973L35.625 5.173V4.66667C35.625 4.04783 35.3748 3.45434 34.9294 3.01675C34.484 2.57917 33.8799 2.33333 33.25 2.33333H4.75ZM35.625 7.89367L24.4435 14.4853L35.625 21.245V7.89367ZM35.5442 23.9377L22.1493 15.8387L19 17.6937L15.8507 15.8387L2.45575 23.9353C2.59071 24.4319 2.88875 24.8707 3.3036 25.1838C3.71845 25.4968 4.2269 25.6666 4.75 25.6667H33.25C33.7728 25.6667 34.281 25.4973 34.6958 25.1847C35.1106 24.8721 35.4088 24.4338 35.5442 23.9377ZM2.375 21.245L13.5565 14.4853L2.375 7.89367V21.245Z" fill="black"/>
</svg>
